<svg xmlns="http://www.w3.org/2000/svg" xmlns:xlink="http://www.w3.org/1999/xlink" zoomAndPan="magnify" viewBox="30 480 1470 540" preserveAspectRatio="xMidYMid meet" version="1.0"><defs><g/><clipPath id="6f6b0a2405"><path d="M 54 502 L 425 502 L 425 994 L 54 994 Z M 54 502 " clip-rule="nonzero"/></clipPath><clipPath id="b036ef972e"><path d="M 0 552.792969 L 395.230469 461 L 508.0625 946.820312 L 112.832031 1038.609375 Z M 0 552.792969 " clip-rule="nonzero"/></clipPath><clipPath id="49044ad36d"><path d="M 0 552.792969 L 395.230469 461 L 508.0625 946.820312 L 112.832031 1038.609375 Z M 0 552.792969 " clip-rule="nonzero"/></clipPath><clipPath id="3791324a3b"><path d="M 150 607 L 322 607 L 322 780 L 150 780 Z M 150 607 " clip-rule="nonzero"/></clipPath><clipPath id="3057fc8839"><path d="M 0 552.792969 L 395.230469 461 L 508.0625 946.820312 L 112.832031 1038.609375 Z M 0 552.792969 " clip-rule="nonzero"/></clipPath><clipPath id="b0ead3ee71"><path d="M 0 552.792969 L 395.230469 461 L 508.0625 946.820312 L 112.832031 1038.609375 Z M 0 552.792969 " clip-rule="nonzero"/></clipPath><clipPath id="0c7c4c370e"><path d="M 1403 587 L 1476 587 L 1476 884 L 1403 884 Z M 1403 587 " clip-rule="nonzero"/></clipPath><clipPath id="05720ab533"><path d="M 1420.976562 584.109375 L 1477.859375 587.742188 L 1458.789062 886.386719 L 1401.90625 882.753906 Z M 1420.976562 584.109375 " clip-rule="nonzero"/></clipPath><clipPath id="41e9fb6927"><path d="M 1420.976562 584.109375 L 1477.859375 587.742188 L 1458.789062 886.386719 L 1401.90625 882.753906 Z M 1420.976562 584.109375 " clip-rule="nonzero"/></clipPath><clipPath id="60c1f99723"><path d="M 1420.976562 584.109375 L 1477.859375 587.742188 L 1458.789062 886.386719 L 1401.90625 882.753906 Z M 1420.976562 584.109375 " clip-rule="nonzero"/></clipPath><clipPath id="cac7258b9c"><rect x="0" width="930" y="0" height="488"/></clipPath><clipPath id="213a7472d2"><rect x="0" width="1029" y="0" height="65"/></clipPath></defs><g clip-path="url(#6f6b0a2405)"><g clip-path="url(#b036ef972e)"><g clip-path="url(#49044ad36d)"><path fill="#00a5e9" d="M 310.425781 992.984375 C 302.757812 994.765625 294.355469 992.808594 288.175781 986.996094 L 112.695312 822.105469 C 48.609375 761.898438 35.847656 664.039062 82.359375 589.386719 C 108.496094 547.441406 149.390625 518.179688 197.554688 506.996094 C 245.722656 495.808594 295.324219 504.050781 337.273438 530.183594 C 411.925781 576.695312 443.601562 670.164062 412.605469 752.453125 L 371.125 862.5625 C 366.367188 875.171875 352.304688 881.554688 339.695312 876.796875 C 327.085938 872.042969 320.699219 857.980469 325.457031 845.371094 L 366.941406 735.261719 C 389.757812 674.675781 366.433594 605.835938 311.5 571.609375 C 280.589844 552.351562 244.054688 546.300781 208.640625 554.527344 C 173.222656 562.75 143.050781 584.292969 123.835938 615.191406 C 89.609375 670.128906 99.011719 742.199219 146.195312 786.53125 L 321.675781 951.421875 C 331.5 960.644531 331.96875 976.078125 322.746094 985.90625 C 319.332031 989.554688 315.050781 991.910156 310.507812 992.964844 Z M 310.425781 992.984375 " fill-opacity="1" fill-rule="nonzero"/></g></g></g><g clip-path="url(#3791324a3b)"><g clip-path="url(#3057fc8839)"><g clip-path="url(#b0ead3ee71)"><path fill="#00a5e9" d="M 238.046875 778.722656 C 231.257812 780.300781 224.121094 778.882812 218.441406 774.84375 L 161.160156 734.308594 C 150.179688 726.542969 147.5625 711.296875 155.371094 700.304688 C 163.140625 689.324219 178.386719 686.703125 189.378906 694.515625 L 223.914062 718.988281 L 275.445312 620.953125 C 281.726562 609.042969 296.464844 604.433594 308.371094 610.714844 C 320.28125 616.992188 324.890625 631.730469 318.613281 643.640625 L 254.101562 766.34375 C 250.84375 772.546875 245.039062 777.054688 238.183594 778.734375 L 238.015625 778.773438 Z M 238.046875 778.722656 " fill-opacity="1" fill-rule="nonzero"/></g></g></g><g clip-path="url(#0c7c4c370e)"><g clip-path="url(#05720ab533)"><g clip-path="url(#41e9fb6927)"><g clip-path="url(#60c1f99723)"><path fill="#039be5" d="M 1460.707031 856.449219 C 1459.699219 872.226562 1446.148438 884.199219 1430.4375 883.195312 C 1414.722656 882.191406 1402.804688 868.59375 1403.8125 852.816406 C 1404.820312 837.042969 1418.371094 825.070312 1434.082031 826.074219 C 1449.796875 827.078125 1461.714844 840.691406 1460.707031 856.449219 Z M 1435.828125 798.726562 C 1447.238281 799.453125 1457.625 790.222656 1459.375 773.007812 L 1474.914062 617.511719 C 1476.46875 601.964844 1464.871094 588.222656 1449.332031 587.230469 C 1433.796875 586.238281 1420.546875 598.394531 1420.125 614.011719 L 1415.746094 770.222656 C 1415.292969 787.519531 1424.421875 797.996094 1435.828125 798.726562 Z M 1435.828125 798.726562 " fill-opacity="1" fill-rule="nonzero"/></g></g></g></g><g transform="matrix(1, 0, 0, 1, 449, 527)"><g clip-path="url(#cac7258b9c)"><g fill="#00a5e9" fill-opacity="1"><g transform="translate(0.625786, 324.540011)"><g><path d="M 95.609375 4.953125 C 83.441406 4.953125 72.148438 3.25 61.734375 -0.15625 C 51.316406 -3.5625 42.238281 -8.664062 34.5 -15.46875 C 26.757812 -22.28125 20.671875 -30.84375 16.234375 -41.15625 C 11.804688 -51.46875 9.59375 -63.535156 9.59375 -77.359375 C 9.59375 -90.972656 11.804688 -102.675781 16.234375 -112.46875 C 20.671875 -122.269531 26.5 -130.316406 33.71875 -136.609375 C 40.945312 -142.898438 49.203125 -147.539062 58.484375 -150.53125 C 67.765625 -153.53125 77.253906 -155.03125 86.953125 -155.03125 C 97.890625 -155.03125 107.84375 -153.378906 116.8125 -150.078125 C 125.78125 -146.773438 133.515625 -142.234375 140.015625 -136.453125 C 146.515625 -130.679688 151.566406 -123.769531 155.171875 -115.71875 C 158.785156 -107.675781 160.59375 -98.910156 160.59375 -89.421875 C 160.59375 -82.410156 158.632812 -77.046875 154.71875 -73.328125 C 150.800781 -69.617188 145.332031 -67.25 138.3125 -66.21875 L 61.890625 -54.765625 C 64.160156 -47.960938 68.800781 -42.859375 75.8125 -39.453125 C 82.820312 -36.046875 90.867188 -34.34375 99.953125 -34.34375 C 108.410156 -34.34375 116.398438 -35.425781 123.921875 -37.59375 C 131.453125 -39.757812 137.59375 -42.285156 142.34375 -45.171875 C 145.644531 -43.109375 148.425781 -40.21875 150.6875 -36.5 C 152.957031 -32.789062 154.09375 -28.875 154.09375 -24.75 C 154.09375 -15.46875 149.765625 -8.554688 141.109375 -4.015625 C 134.503906 -0.515625 127.078125 1.851562 118.828125 3.09375 C 110.578125 4.332031 102.835938 4.953125 95.609375 4.953125 Z M 86.953125 -116.65625 C 82.003906 -116.65625 77.722656 -115.828125 74.109375 -114.171875 C 70.492188 -112.523438 67.550781 -110.410156 65.28125 -107.828125 C 63.019531 -105.253906 61.320312 -102.367188 60.1875 -99.171875 C 59.050781 -95.972656 58.378906 -92.722656 58.171875 -89.421875 L 111.09375 -98.09375 C 110.46875 -102.21875 108.195312 -106.34375 104.28125 -110.46875 C 100.363281 -114.59375 94.585938 -116.65625 86.953125 -116.65625 Z M 86.953125 -116.65625 "/></g></g></g><g fill="#00a5e9" fill-opacity="1"><g transform="translate(160.294059, 324.540011)"><g><path d="M 16.09375 -148.21875 C 18.15625 -148.84375 21.398438 -149.460938 25.828125 -150.078125 C 30.265625 -150.691406 34.859375 -151 39.609375 -151 C 44.148438 -151 48.222656 -150.691406 51.828125 -150.078125 C 55.441406 -149.460938 58.484375 -148.222656 60.953125 -146.359375 C 63.429688 -144.503906 65.335938 -141.976562 66.671875 -138.78125 C 68.015625 -135.582031 68.6875 -131.40625 68.6875 -126.25 L 68.6875 -59.71875 C 68.6875 -51.257812 70.75 -45.222656 74.875 -41.609375 C 79.007812 -38.003906 84.992188 -36.203125 92.828125 -36.203125 C 97.578125 -36.203125 101.445312 -36.613281 104.4375 -37.4375 C 107.425781 -38.269531 109.742188 -39.097656 111.390625 -39.921875 L 111.390625 -148.21875 C 113.453125 -148.84375 116.703125 -149.460938 121.140625 -150.078125 C 125.578125 -150.691406 130.171875 -151 134.921875 -151 C 139.453125 -151 143.519531 -150.691406 147.125 -150.078125 C 150.738281 -149.460938 153.785156 -148.222656 156.265625 -146.359375 C 158.742188 -144.503906 160.648438 -141.976562 161.984375 -138.78125 C 163.328125 -135.582031 164 -131.40625 164 -126.25 L 164 -32.1875 C 164 -21.863281 159.664062 -14.125 151 -8.96875 C 143.78125 -4.4375 135.164062 -0.984375 125.15625 1.390625 C 115.15625 3.765625 104.273438 4.953125 92.515625 4.953125 C 81.378906 4.953125 71.117188 3.710938 61.734375 1.234375 C 52.347656 -1.234375 44.25 -5.046875 37.4375 -10.203125 C 30.632812 -15.367188 25.375 -22.023438 21.65625 -30.171875 C 17.945312 -38.316406 16.09375 -48.164062 16.09375 -59.71875 Z M 16.09375 -148.21875 "/></g></g></g><g fill="#00a5e9" fill-opacity="1"><g transform="translate(330.173717, 324.540011)"><g><path d="M 16.703125 -150.390625 C 16.703125 -160.910156 18.507812 -169.929688 22.125 -177.453125 C 25.738281 -184.984375 30.640625 -191.171875 36.828125 -196.015625 C 43.015625 -200.867188 50.285156 -204.429688 58.640625 -206.703125 C 66.992188 -208.972656 75.914062 -210.109375 85.40625 -210.109375 C 100.664062 -210.109375 111.90625 -208.097656 119.125 -204.078125 C 126.351562 -200.054688 129.96875 -193.195312 129.96875 -183.5 C 129.96875 -179.375 129.085938 -175.660156 127.328125 -172.359375 C 125.578125 -169.054688 123.671875 -166.582031 121.609375 -164.9375 C 117.691406 -165.96875 113.617188 -166.84375 109.390625 -167.5625 C 105.160156 -168.28125 100.257812 -168.640625 94.6875 -168.640625 C 85.8125 -168.640625 78.898438 -167.144531 73.953125 -164.15625 C 69.003906 -161.164062 66.53125 -155.957031 66.53125 -148.53125 L 66.53125 -138.625 L 117.28125 -138.625 C 118.519531 -136.351562 119.703125 -133.515625 120.828125 -130.109375 C 121.960938 -126.710938 122.53125 -122.953125 122.53125 -118.828125 C 122.53125 -111.609375 120.929688 -106.398438 117.734375 -103.203125 C 114.535156 -100.003906 110.257812 -98.40625 104.90625 -98.40625 L 69.3125 -98.40625 L 69.3125 -0.3125 C 67.25 0.3125 64 0.929688 59.5625 1.546875 C 55.125 2.160156 50.535156 2.46875 45.796875 2.46875 C 41.253906 2.46875 37.175781 2.160156 33.5625 1.546875 C 29.957031 0.929688 26.914062 -0.300781 24.4375 -2.15625 C 21.96875 -4.019531 20.0625 -6.550781 18.71875 -9.75 C 17.375 -12.945312 16.703125 -17.125 16.703125 -22.28125 Z M 16.703125 -150.390625 "/></g></g></g><g fill="#00a5e9" fill-opacity="1"><g transform="translate(453.019237, 324.540011)"><g><path d="M 80.453125 -33.421875 C 83.960938 -33.421875 87.832031 -33.78125 92.0625 -34.5 C 96.289062 -35.21875 99.4375 -36.195312 101.5 -37.4375 L 101.5 -62.203125 L 79.21875 -60.34375 C 73.4375 -59.925781 68.6875 -58.6875 64.96875 -56.625 C 61.257812 -54.5625 59.40625 -51.46875 59.40625 -47.34375 C 59.40625 -43.21875 61.003906 -39.863281 64.203125 -37.28125 C 67.398438 -34.707031 72.816406 -33.421875 80.453125 -33.421875 Z M 77.984375 -155.03125 C 89.117188 -155.03125 99.273438 -153.894531 108.453125 -151.625 C 117.640625 -149.351562 125.476562 -145.894531 131.96875 -141.25 C 138.46875 -136.613281 143.472656 -130.734375 146.984375 -123.609375 C 150.492188 -116.492188 152.25 -108.09375 152.25 -98.40625 L 152.25 -29.09375 C 152.25 -23.726562 150.75 -19.34375 147.75 -15.9375 C 144.757812 -12.53125 141.203125 -9.585938 137.078125 -7.109375 C 123.671875 0.929688 104.796875 4.953125 80.453125 4.953125 C 69.515625 4.953125 59.660156 3.921875 50.890625 1.859375 C 42.128906 -0.203125 34.601562 -3.296875 28.3125 -7.421875 C 22.019531 -11.546875 17.171875 -16.804688 13.765625 -23.203125 C 10.367188 -29.597656 8.671875 -37.023438 8.671875 -45.484375 C 8.671875 -59.722656 12.894531 -70.65625 21.34375 -78.28125 C 29.800781 -85.914062 42.90625 -90.660156 60.65625 -92.515625 L 101.1875 -96.859375 L 101.1875 -99.015625 C 101.1875 -105.003906 98.554688 -109.285156 93.296875 -111.859375 C 88.035156 -114.441406 80.453125 -115.734375 70.546875 -115.734375 C 62.710938 -115.734375 55.082031 -114.90625 47.65625 -113.25 C 40.226562 -111.601562 33.523438 -109.539062 27.546875 -107.0625 C 24.859375 -108.914062 22.585938 -111.75 20.734375 -115.5625 C 18.878906 -119.382812 17.953125 -123.359375 17.953125 -127.484375 C 17.953125 -132.847656 19.238281 -137.128906 21.8125 -140.328125 C 24.394531 -143.523438 28.367188 -146.257812 33.734375 -148.53125 C 39.710938 -150.800781 46.773438 -152.453125 54.921875 -153.484375 C 63.066406 -154.515625 70.753906 -155.03125 77.984375 -155.03125 Z M 77.984375 -155.03125 "/></g></g></g><g fill="#00a5e9" fill-opacity="1"><g transform="translate(611.140417, 324.540011)"><g><path d="M 71.484375 2.171875 C 61.992188 0.109375 53.429688 -3.191406 45.796875 -7.734375 C 38.160156 -12.273438 31.660156 -17.84375 26.296875 -24.4375 C 20.929688 -31.039062 16.804688 -38.519531 13.921875 -46.875 C 11.035156 -55.226562 9.59375 -64.359375 9.59375 -74.265625 C 9.59375 -87.878906 11.804688 -99.789062 16.234375 -110 C 20.671875 -120.21875 26.707031 -128.625 34.34375 -135.21875 C 41.976562 -141.820312 50.796875 -146.773438 60.796875 -150.078125 C 70.804688 -153.378906 81.378906 -155.03125 92.515625 -155.03125 C 107.367188 -155.03125 118.816406 -152.347656 126.859375 -146.984375 C 134.910156 -141.617188 138.9375 -134.707031 138.9375 -126.25 C 138.9375 -122.332031 138.007812 -118.671875 136.15625 -115.265625 C 134.300781 -111.859375 132.132812 -108.921875 129.65625 -106.453125 C 126.144531 -108.097656 121.914062 -109.691406 116.96875 -111.234375 C 112.019531 -112.785156 106.65625 -113.5625 100.875 -113.5625 C 95.71875 -113.5625 90.816406 -112.734375 86.171875 -111.078125 C 81.535156 -109.429688 77.515625 -107.007812 74.109375 -103.8125 C 70.703125 -100.613281 67.96875 -96.640625 65.90625 -91.890625 C 63.84375 -87.148438 62.8125 -81.582031 62.8125 -75.1875 C 62.8125 -62.40625 66.472656 -52.816406 73.796875 -46.421875 C 81.117188 -40.023438 90.039062 -36.828125 100.5625 -36.828125 C 106.75 -36.828125 112.113281 -37.546875 116.65625 -38.984375 C 121.195312 -40.429688 125.21875 -41.976562 128.71875 -43.625 C 132.851562 -40.738281 135.953125 -37.59375 138.015625 -34.1875 C 140.078125 -30.789062 141.109375 -26.71875 141.109375 -21.96875 C 141.109375 -15.570312 138.679688 -10.207031 133.828125 -5.875 C 128.984375 -1.539062 122.125 1.445312 113.25 3.09375 C 114.90625 5.976562 116.144531 9.789062 116.96875 14.53125 C 117.789062 19.28125 118.203125 23.410156 118.203125 26.921875 C 118.203125 37.441406 114.898438 46.15625 108.296875 53.0625 C 101.703125 59.976562 92.523438 63.4375 80.765625 63.4375 C 72.304688 63.4375 65.394531 61.320312 60.03125 57.09375 C 54.664062 52.863281 51.984375 46.828125 51.984375 38.984375 C 51.984375 35.484375 52.394531 32.390625 53.21875 29.703125 C 59.820312 29.296875 64.976562 27.695312 68.6875 24.90625 C 72.40625 22.125 74.265625 18.359375 74.265625 13.609375 C 74.265625 11.546875 74.003906 9.535156 73.484375 7.578125 C 72.972656 5.617188 72.304688 3.816406 71.484375 2.171875 Z M 71.484375 2.171875 "/></g></g></g><g fill="#00a5e9" fill-opacity="1"><g transform="translate(753.789747, 324.540011)"><g><path d="M 171.734375 -75.1875 C 171.734375 -62.40625 169.773438 -51.007812 165.859375 -41 C 161.941406 -31 156.421875 -22.59375 149.296875 -15.78125 C 142.179688 -8.96875 133.671875 -3.804688 123.765625 -0.296875 C 113.867188 3.203125 102.835938 4.953125 90.671875 4.953125 C 78.492188 4.953125 67.453125 3.097656 57.546875 -0.609375 C 47.648438 -4.328125 39.140625 -9.640625 32.015625 -16.546875 C 24.898438 -23.460938 19.382812 -31.867188 15.46875 -41.765625 C 11.550781 -51.671875 9.59375 -62.8125 9.59375 -75.1875 C 9.59375 -87.363281 11.550781 -98.398438 15.46875 -108.296875 C 19.382812 -118.203125 24.898438 -126.609375 32.015625 -133.515625 C 39.140625 -140.429688 47.648438 -145.742188 57.546875 -149.453125 C 67.453125 -153.171875 78.492188 -155.03125 90.671875 -155.03125 C 102.835938 -155.03125 113.867188 -153.117188 123.765625 -149.296875 C 133.671875 -145.484375 142.179688 -140.117188 149.296875 -133.203125 C 156.421875 -126.296875 161.941406 -117.890625 165.859375 -107.984375 C 169.773438 -98.085938 171.734375 -87.15625 171.734375 -75.1875 Z M 63.4375 -75.1875 C 63.4375 -62.601562 65.859375 -52.957031 70.703125 -46.25 C 75.554688 -39.550781 82.3125 -36.203125 90.96875 -36.203125 C 99.632812 -36.203125 106.285156 -39.601562 110.921875 -46.40625 C 115.566406 -53.21875 117.890625 -62.8125 117.890625 -75.1875 C 117.890625 -87.570312 115.515625 -97.113281 110.765625 -103.8125 C 106.023438 -110.519531 99.328125 -113.875 90.671875 -113.875 C 82.003906 -113.875 75.296875 -110.519531 70.546875 -103.8125 C 65.804688 -97.113281 63.4375 -87.570312 63.4375 -75.1875 Z M 63.4375 -75.1875 "/></g></g></g></g></g><g transform="matrix(1, 0, 0, 1, 449, 916)"><g clip-path="url(#213a7472d2)"><g fill="#00a5e9" fill-opacity="1"><g transform="translate(0.625786, 47.417203)"><g><path d="M 18.171875 0.328125 C 15.128906 0.328125 12.335938 -0.378906 9.796875 -1.796875 C 7.265625 -3.210938 5.25 -5.1875 3.75 -7.71875 C 2.257812 -10.257812 1.515625 -13.113281 1.515625 -16.28125 C 1.515625 -19.457031 2.257812 -22.304688 3.75 -24.828125 C 5.25 -27.347656 7.265625 -29.316406 9.796875 -30.734375 C 12.335938 -32.148438 15.128906 -32.859375 18.171875 -32.859375 C 21.222656 -32.859375 24.015625 -32.148438 26.546875 -30.734375 C 29.085938 -29.316406 31.085938 -27.347656 32.546875 -24.828125 C 34.015625 -22.304688 34.75 -19.457031 34.75 -16.28125 C 34.75 -13.113281 34.007812 -10.257812 32.53125 -7.71875 C 31.050781 -5.1875 29.050781 -3.210938 26.53125 -1.796875 C 24.007812 -0.378906 21.222656 0.328125 18.171875 0.328125 Z M 18.171875 -6.875 C 20.765625 -6.875 22.835938 -7.734375 24.390625 -9.453125 C 25.941406 -11.179688 26.71875 -13.457031 26.71875 -16.28125 C 26.71875 -19.144531 25.941406 -21.429688 24.390625 -23.140625 C 22.835938 -24.847656 20.765625 -25.703125 18.171875 -25.703125 C 15.554688 -25.703125 13.472656 -24.851562 11.921875 -23.15625 C 10.367188 -21.46875 9.59375 -19.175781 9.59375 -16.28125 C 9.59375 -13.425781 10.367188 -11.144531 11.921875 -9.4375 C 13.472656 -7.726562 15.554688 -6.875 18.171875 -6.875 Z M 18.171875 -6.875 "/></g></g></g><g fill="#00a5e9" fill-opacity="1"><g transform="translate(43.530853, 47.417203)"><g/></g></g><g fill="#00a5e9" fill-opacity="1"><g transform="translate(59.95523, 47.417203)"><g><path d="M 14.578125 0.328125 C 12.210938 0.328125 10.09375 -0.0546875 8.21875 -0.828125 C 6.34375 -1.597656 4.84375 -2.734375 3.71875 -4.234375 C 2.59375 -5.742188 2 -7.5625 1.9375 -9.6875 L 10.328125 -9.6875 C 10.453125 -8.488281 10.867188 -7.570312 11.578125 -6.9375 C 12.285156 -6.3125 13.207031 -6 14.34375 -6 C 15.519531 -6 16.445312 -6.265625 17.125 -6.796875 C 17.800781 -7.335938 18.140625 -8.085938 18.140625 -9.046875 C 18.140625 -9.847656 17.867188 -10.507812 17.328125 -11.03125 C 16.785156 -11.550781 16.125 -11.976562 15.34375 -12.3125 C 14.5625 -12.65625 13.445312 -13.039062 12 -13.46875 C 9.90625 -14.113281 8.195312 -14.757812 6.875 -15.40625 C 5.550781 -16.050781 4.410156 -17.003906 3.453125 -18.265625 C 2.503906 -19.523438 2.03125 -21.171875 2.03125 -23.203125 C 2.03125 -26.222656 3.117188 -28.585938 5.296875 -30.296875 C 7.484375 -32.003906 10.332031 -32.859375 13.84375 -32.859375 C 17.40625 -32.859375 20.28125 -32.003906 22.46875 -30.296875 C 24.65625 -28.585938 25.828125 -26.207031 25.984375 -23.15625 L 17.4375 -23.15625 C 17.375 -24.207031 16.988281 -25.03125 16.28125 -25.625 C 15.570312 -26.226562 14.664062 -26.53125 13.5625 -26.53125 C 12.613281 -26.53125 11.84375 -26.273438 11.25 -25.765625 C 10.664062 -25.265625 10.375 -24.535156 10.375 -23.578125 C 10.375 -22.535156 10.863281 -21.71875 11.84375 -21.125 C 12.832031 -20.539062 14.375 -19.910156 16.46875 -19.234375 C 18.5625 -18.523438 20.257812 -17.847656 21.5625 -17.203125 C 22.875 -16.554688 24.003906 -15.617188 24.953125 -14.390625 C 25.910156 -13.160156 26.390625 -11.578125 26.390625 -9.640625 C 26.390625 -7.796875 25.921875 -6.117188 24.984375 -4.609375 C 24.046875 -3.109375 22.679688 -1.910156 20.890625 -1.015625 C 19.109375 -0.117188 17.003906 0.328125 14.578125 0.328125 Z M 14.578125 0.328125 "/></g></g></g><g fill="#00a5e9" fill-opacity="1"><g transform="translate(94.971447, 47.417203)"><g><path d="M 10.75 -26.0625 L 10.75 -19.515625 L 21.3125 -19.515625 L 21.3125 -13.421875 L 10.75 -13.421875 L 10.75 -6.328125 L 22.703125 -6.328125 L 22.703125 0 L 2.859375 0 L 2.859375 -32.390625 L 22.703125 -32.390625 L 22.703125 -26.0625 Z M 10.75 -26.0625 "/></g></g></g><g fill="#00a5e9" fill-opacity="1"><g transform="translate(126.573788, 47.417203)"><g><path d="M 19.375 0 L 12.640625 -12.234375 L 10.75 -12.234375 L 10.75 0 L 2.859375 0 L 2.859375 -32.390625 L 16.109375 -32.390625 C 18.660156 -32.390625 20.832031 -31.941406 22.625 -31.046875 C 24.425781 -30.160156 25.769531 -28.9375 26.65625 -27.375 C 27.550781 -25.820312 28 -24.09375 28 -22.1875 C 28 -20.039062 27.390625 -18.117188 26.171875 -16.421875 C 24.960938 -14.734375 23.175781 -13.535156 20.8125 -12.828125 L 28.28125 0 Z M 10.75 -17.8125 L 15.640625 -17.8125 C 17.085938 -17.8125 18.171875 -18.164062 18.890625 -18.875 C 19.617188 -19.582031 19.984375 -20.582031 19.984375 -21.875 C 19.984375 -23.101562 19.617188 -24.070312 18.890625 -24.78125 C 18.171875 -25.488281 17.085938 -25.84375 15.640625 -25.84375 L 10.75 -25.84375 Z M 10.75 -17.8125 "/></g></g></g><g fill="#00a5e9" fill-opacity="1"><g transform="translate(163.296959, 47.417203)"><g><path d="M 33.265625 -32.390625 L 21.78125 0 L 11.90625 0 L 0.421875 -32.390625 L 8.8125 -32.390625 L 16.84375 -7.9375 L 24.921875 -32.390625 Z M 33.265625 -32.390625 "/></g></g></g><g fill="#00a5e9" fill-opacity="1"><g transform="translate(203.618554, 47.417203)"><g><path d="M 10.75 -32.390625 L 10.75 0 L 2.859375 0 L 2.859375 -32.390625 Z M 10.75 -32.390625 "/></g></g></g><g fill="#00a5e9" fill-opacity="1"><g transform="translate(223.872017, 47.417203)"><g><path d="M 17.71875 -6.921875 C 19.226562 -6.921875 20.570312 -7.273438 21.75 -7.984375 C 22.9375 -8.691406 23.851562 -9.722656 24.5 -11.078125 L 33.171875 -11.078125 C 32.335938 -7.960938 30.789062 -5.425781 28.53125 -3.46875 C 26.269531 -1.519531 23.523438 -0.332031 20.296875 0.09375 L 20.296875 1.890625 C 21.898438 1.890625 23.300781 2.328125 24.5 3.203125 C 25.695312 4.078125 26.296875 5.394531 26.296875 7.15625 C 26.296875 8.90625 25.664062 10.234375 24.40625 11.140625 C 23.144531 12.046875 21.640625 12.5 19.890625 12.5 L 12.78125 12.5 L 12.78125 8.171875 L 18.828125 8.171875 C 19.441406 8.171875 19.898438 8.078125 20.203125 7.890625 C 20.515625 7.703125 20.671875 7.394531 20.671875 6.96875 C 20.671875 6.539062 20.515625 6.238281 20.203125 6.0625 C 19.898438 5.894531 19.441406 5.8125 18.828125 5.8125 L 15.546875 5.8125 L 15.546875 0.09375 C 12.773438 -0.21875 10.328125 -1.101562 8.203125 -2.5625 C 6.085938 -4.019531 4.441406 -5.929688 3.265625 -8.296875 C 2.097656 -10.671875 1.515625 -13.316406 1.515625 -16.234375 C 1.515625 -19.441406 2.207031 -22.296875 3.59375 -24.796875 C 4.976562 -27.304688 6.910156 -29.257812 9.390625 -30.65625 C 11.867188 -32.0625 14.675781 -32.765625 17.8125 -32.765625 C 21.65625 -32.765625 24.945312 -31.75 27.6875 -29.71875 C 30.425781 -27.6875 32.253906 -24.914062 33.171875 -21.40625 L 24.5 -21.40625 C 23.851562 -22.757812 22.9375 -23.789062 21.75 -24.5 C 20.570312 -25.207031 19.226562 -25.5625 17.71875 -25.5625 C 15.289062 -25.5625 13.320312 -24.710938 11.8125 -23.015625 C 10.300781 -21.328125 9.546875 -19.066406 9.546875 -16.234375 C 9.546875 -13.410156 10.300781 -11.148438 11.8125 -9.453125 C 13.320312 -7.765625 15.289062 -6.921875 17.71875 -6.921875 Z M 17.71875 -6.921875 "/></g></g></g><g fill="#00a5e9" fill-opacity="1"><g transform="translate(265.669887, 47.417203)"><g><path d="M 18.171875 0.328125 C 15.128906 0.328125 12.335938 -0.378906 9.796875 -1.796875 C 7.265625 -3.210938 5.25 -5.1875 3.75 -7.71875 C 2.257812 -10.257812 1.515625 -13.113281 1.515625 -16.28125 C 1.515625 -19.457031 2.257812 -22.304688 3.75 -24.828125 C 5.25 -27.347656 7.265625 -29.316406 9.796875 -30.734375 C 12.335938 -32.148438 15.128906 -32.859375 18.171875 -32.859375 C 21.222656 -32.859375 24.015625 -32.148438 26.546875 -30.734375 C 29.085938 -29.316406 31.085938 -27.347656 32.546875 -24.828125 C 34.015625 -22.304688 34.75 -19.457031 34.75 -16.28125 C 34.75 -13.113281 34.007812 -10.257812 32.53125 -7.71875 C 31.050781 -5.1875 29.050781 -3.210938 26.53125 -1.796875 C 24.007812 -0.378906 21.222656 0.328125 18.171875 0.328125 Z M 18.171875 -6.875 C 20.765625 -6.875 22.835938 -7.734375 24.390625 -9.453125 C 25.941406 -11.179688 26.71875 -13.457031 26.71875 -16.28125 C 26.71875 -19.144531 25.941406 -21.429688 24.390625 -23.140625 C 22.835938 -24.847656 20.765625 -25.703125 18.171875 -25.703125 C 15.554688 -25.703125 13.472656 -24.851562 11.921875 -23.15625 C 10.367188 -21.46875 9.59375 -19.175781 9.59375 -16.28125 C 9.59375 -13.425781 10.367188 -11.144531 11.921875 -9.4375 C 13.472656 -7.726562 15.554688 -6.875 18.171875 -6.875 Z M 18.171875 -6.875 "/></g></g></g><g fill="#00a5e9" fill-opacity="1"><g transform="translate(308.574955, 47.417203)"><g/></g></g><g fill="#00a5e9" fill-opacity="1"><g transform="translate(324.999314, 47.417203)"><g><path d="M 1.515625 -16.234375 C 1.515625 -19.441406 2.207031 -22.296875 3.59375 -24.796875 C 4.976562 -27.304688 6.910156 -29.257812 9.390625 -30.65625 C 11.867188 -32.0625 14.675781 -32.765625 17.8125 -32.765625 C 21.65625 -32.765625 24.945312 -31.75 27.6875 -29.71875 C 30.425781 -27.6875 32.253906 -24.914062 33.171875 -21.40625 L 24.5 -21.40625 C 23.851562 -22.757812 22.9375 -23.789062 21.75 -24.5 C 20.570312 -25.207031 19.226562 -25.5625 17.71875 -25.5625 C 15.289062 -25.5625 13.320312 -24.710938 11.8125 -23.015625 C 10.300781 -21.328125 9.546875 -19.066406 9.546875 -16.234375 C 9.546875 -13.410156 10.300781 -11.148438 11.8125 -9.453125 C 13.320312 -7.765625 15.289062 -6.921875 17.71875 -6.921875 C 19.226562 -6.921875 20.570312 -7.273438 21.75 -7.984375 C 22.9375 -8.691406 23.851562 -9.722656 24.5 -11.078125 L 33.171875 -11.078125 C 32.253906 -7.566406 30.425781 -4.800781 27.6875 -2.78125 C 24.945312 -0.769531 21.65625 0.234375 17.8125 0.234375 C 14.675781 0.234375 11.867188 -0.460938 9.390625 -1.859375 C 6.910156 -3.265625 4.976562 -5.210938 3.59375 -7.703125 C 2.207031 -10.191406 1.515625 -13.035156 1.515625 -16.234375 Z M 1.515625 -16.234375 "/></g></g></g><g fill="#00a5e9" fill-opacity="1"><g transform="translate(366.797185, 47.417203)"><g><path d="M 10.75 -26.0625 L 10.75 -19.515625 L 21.3125 -19.515625 L 21.3125 -13.421875 L 10.75 -13.421875 L 10.75 -6.328125 L 22.703125 -6.328125 L 22.703125 0 L 2.859375 0 L 2.859375 -32.390625 L 22.703125 -32.390625 L 22.703125 -26.0625 Z M 10.75 -26.0625 "/></g></g></g><g fill="#00a5e9" fill-opacity="1"><g transform="translate(398.39956, 47.417203)"><g><path d="M 19.375 0 L 12.640625 -12.234375 L 10.75 -12.234375 L 10.75 0 L 2.859375 0 L 2.859375 -32.390625 L 16.109375 -32.390625 C 18.660156 -32.390625 20.832031 -31.941406 22.625 -31.046875 C 24.425781 -30.160156 25.769531 -28.9375 26.65625 -27.375 C 27.550781 -25.820312 28 -24.09375 28 -22.1875 C 28 -20.039062 27.390625 -18.117188 26.171875 -16.421875 C 24.960938 -14.734375 23.175781 -13.535156 20.8125 -12.828125 L 28.28125 0 Z M 10.75 -17.8125 L 15.640625 -17.8125 C 17.085938 -17.8125 18.171875 -18.164062 18.890625 -18.875 C 19.617188 -19.582031 19.984375 -20.582031 19.984375 -21.875 C 19.984375 -23.101562 19.617188 -24.070312 18.890625 -24.78125 C 18.171875 -25.488281 17.085938 -25.84375 15.640625 -25.84375 L 10.75 -25.84375 Z M 10.75 -17.8125 "/></g></g></g><g fill="#00a5e9" fill-opacity="1"><g transform="translate(435.122715, 47.417203)"><g><path d="M 26.15625 -32.390625 L 26.15625 -26.0625 L 17.578125 -26.0625 L 17.578125 0 L 9.6875 0 L 9.6875 -26.0625 L 1.109375 -26.0625 L 1.109375 -32.390625 Z M 26.15625 -32.390625 "/></g></g></g><g fill="#00a5e9" fill-opacity="1"><g transform="translate(469.031716, 47.417203)"><g><path d="M 18.171875 0.328125 C 15.128906 0.328125 12.335938 -0.378906 9.796875 -1.796875 C 7.265625 -3.210938 5.25 -5.1875 3.75 -7.71875 C 2.257812 -10.257812 1.515625 -13.113281 1.515625 -16.28125 C 1.515625 -19.457031 2.257812 -22.304688 3.75 -24.828125 C 5.25 -27.347656 7.265625 -29.316406 9.796875 -30.734375 C 12.335938 -32.148438 15.128906 -32.859375 18.171875 -32.859375 C 21.222656 -32.859375 24.015625 -32.148438 26.546875 -30.734375 C 29.085938 -29.316406 31.085938 -27.347656 32.546875 -24.828125 C 34.015625 -22.304688 34.75 -19.457031 34.75 -16.28125 C 34.75 -13.113281 34.007812 -10.257812 32.53125 -7.71875 C 31.050781 -5.1875 29.050781 -3.210938 26.53125 -1.796875 C 24.007812 -0.378906 21.222656 0.328125 18.171875 0.328125 Z M 18.171875 -6.875 C 20.765625 -6.875 22.835938 -7.734375 24.390625 -9.453125 C 25.941406 -11.179688 26.71875 -13.457031 26.71875 -16.28125 C 26.71875 -19.144531 25.941406 -21.429688 24.390625 -23.140625 C 22.835938 -24.847656 20.765625 -25.703125 18.171875 -25.703125 C 15.554688 -25.703125 13.472656 -24.851562 11.921875 -23.15625 C 10.367188 -21.46875 9.59375 -19.175781 9.59375 -16.28125 C 9.59375 -13.425781 10.367188 -11.144531 11.921875 -9.4375 C 13.472656 -7.726562 15.554688 -6.875 18.171875 -6.875 Z M 18.171875 -6.875 "/></g></g></g><g fill="#00a5e9" fill-opacity="1"><g transform="translate(511.936802, 47.417203)"><g><path d="M 11.34375 -7.296875 L 6.234375 5.953125 L 1.203125 5.953125 L 3.875 -7.296875 Z M 11.34375 -7.296875 "/></g></g></g><g fill="#00a5e9" fill-opacity="1"><g transform="translate(531.821205, 47.417203)"><g/></g></g><g fill="#00a5e9" fill-opacity="1"><g transform="translate(548.245564, 47.417203)"><g><path d="M 31.84375 0 L 23.953125 0 L 10.75 -19.984375 L 10.75 0 L 2.859375 0 L 2.859375 -32.390625 L 10.75 -32.390625 L 23.953125 -12.3125 L 23.953125 -32.390625 L 31.84375 -32.390625 Z M 31.84375 0 "/></g></g></g><g fill="#00a5e9" fill-opacity="1"><g transform="translate(589.582109, 47.417203)"><g><path d="M 23.03125 -5.71875 L 10.9375 -5.71875 L 9 0 L 0.734375 0 L 12.453125 -32.390625 L 21.59375 -32.390625 L 33.3125 0 L 24.96875 0 Z M 21 -11.8125 L 16.984375 -23.671875 L 13.015625 -11.8125 Z M 21 -11.8125 "/></g></g></g><g fill="#00a5e9" fill-opacity="1"><g transform="translate(630.226597, 47.417203)"><g/></g></g><g fill="#00a5e9" fill-opacity="1"><g transform="translate(646.651027, 47.417203)"><g><path d="M 30.921875 -32.390625 L 30.921875 0 L 23.03125 0 L 23.03125 -13.328125 L 10.75 -13.328125 L 10.75 0 L 2.859375 0 L 2.859375 -32.390625 L 10.75 -32.390625 L 10.75 -19.703125 L 23.03125 -19.703125 L 23.03125 -32.390625 Z M 30.921875 -32.390625 "/></g></g></g><g fill="#00a5e9" fill-opacity="1"><g transform="translate(687.018719, 47.417203)"><g><path d="M 18.171875 0.328125 C 15.128906 0.328125 12.335938 -0.378906 9.796875 -1.796875 C 7.265625 -3.210938 5.25 -5.1875 3.75 -7.71875 C 2.257812 -10.257812 1.515625 -13.113281 1.515625 -16.28125 C 1.515625 -19.457031 2.257812 -22.304688 3.75 -24.828125 C 5.25 -27.347656 7.265625 -29.316406 9.796875 -30.734375 C 12.335938 -32.148438 15.128906 -32.859375 18.171875 -32.859375 C 21.222656 -32.859375 24.015625 -32.148438 26.546875 -30.734375 C 29.085938 -29.316406 31.085938 -27.347656 32.546875 -24.828125 C 34.015625 -22.304688 34.75 -19.457031 34.75 -16.28125 C 34.75 -13.113281 34.007812 -10.257812 32.53125 -7.71875 C 31.050781 -5.1875 29.050781 -3.210938 26.53125 -1.796875 C 24.007812 -0.378906 21.222656 0.328125 18.171875 0.328125 Z M 18.171875 -6.875 C 20.765625 -6.875 22.835938 -7.734375 24.390625 -9.453125 C 25.941406 -11.179688 26.71875 -13.457031 26.71875 -16.28125 C 26.71875 -19.144531 25.941406 -21.429688 24.390625 -23.140625 C 22.835938 -24.847656 20.765625 -25.703125 18.171875 -25.703125 C 15.554688 -25.703125 13.472656 -24.851562 11.921875 -23.15625 C 10.367188 -21.46875 9.59375 -19.175781 9.59375 -16.28125 C 9.59375 -13.425781 10.367188 -11.144531 11.921875 -9.4375 C 13.472656 -7.726562 15.554688 -6.875 18.171875 -6.875 Z M 18.171875 -6.875 "/></g></g></g><g fill="#00a5e9" fill-opacity="1"><g transform="translate(729.923839, 47.417203)"><g><path d="M 19.375 0 L 12.640625 -12.234375 L 10.75 -12.234375 L 10.75 0 L 2.859375 0 L 2.859375 -32.390625 L 16.109375 -32.390625 C 18.660156 -32.390625 20.832031 -31.941406 22.625 -31.046875 C 24.425781 -30.160156 25.769531 -28.9375 26.65625 -27.375 C 27.550781 -25.820312 28 -24.09375 28 -22.1875 C 28 -20.039062 27.390625 -18.117188 26.171875 -16.421875 C 24.960938 -14.734375 23.175781 -13.535156 20.8125 -12.828125 L 28.28125 0 Z M 10.75 -17.8125 L 15.640625 -17.8125 C 17.085938 -17.8125 18.171875 -18.164062 18.890625 -18.875 C 19.617188 -19.582031 19.984375 -20.582031 19.984375 -21.875 C 19.984375 -23.101562 19.617188 -24.070312 18.890625 -24.78125 C 18.171875 -25.488281 17.085938 -25.84375 15.640625 -25.84375 L 10.75 -25.84375 Z M 10.75 -17.8125 "/></g></g></g><g fill="#00a5e9" fill-opacity="1"><g transform="translate(766.646994, 47.417203)"><g><path d="M 23.03125 -5.71875 L 10.9375 -5.71875 L 9 0 L 0.734375 0 L 12.453125 -32.390625 L 21.59375 -32.390625 L 33.3125 0 L 24.96875 0 Z M 21 -11.8125 L 16.984375 -23.671875 L 13.015625 -11.8125 Z M 21 -11.8125 "/></g></g></g><g fill="#00a5e9" fill-opacity="1"><g transform="translate(807.291482, 47.417203)"><g/></g></g><g fill="#00a5e9" fill-opacity="1"><g transform="translate(823.715841, 47.417203)"><g><path d="M 1.515625 -16.234375 C 1.515625 -19.441406 2.207031 -22.296875 3.59375 -24.796875 C 4.976562 -27.304688 6.910156 -29.257812 9.390625 -30.65625 C 11.867188 -32.0625 14.675781 -32.765625 17.8125 -32.765625 C 21.65625 -32.765625 24.945312 -31.75 27.6875 -29.71875 C 30.425781 -27.6875 32.253906 -24.914062 33.171875 -21.40625 L 24.5 -21.40625 C 23.851562 -22.757812 22.9375 -23.789062 21.75 -24.5 C 20.570312 -25.207031 19.226562 -25.5625 17.71875 -25.5625 C 15.289062 -25.5625 13.320312 -24.710938 11.8125 -23.015625 C 10.300781 -21.328125 9.546875 -19.066406 9.546875 -16.234375 C 9.546875 -13.410156 10.300781 -11.148438 11.8125 -9.453125 C 13.320312 -7.765625 15.289062 -6.921875 17.71875 -6.921875 C 19.226562 -6.921875 20.570312 -7.273438 21.75 -7.984375 C 22.9375 -8.691406 23.851562 -9.722656 24.5 -11.078125 L 33.171875 -11.078125 C 32.253906 -7.566406 30.425781 -4.800781 27.6875 -2.78125 C 24.945312 -0.769531 21.65625 0.234375 17.8125 0.234375 C 14.675781 0.234375 11.867188 -0.460938 9.390625 -1.859375 C 6.910156 -3.265625 4.976562 -5.210938 3.59375 -7.703125 C 2.207031 -10.191406 1.515625 -13.035156 1.515625 -16.234375 Z M 1.515625 -16.234375 "/></g></g></g><g fill="#00a5e9" fill-opacity="1"><g transform="translate(865.513712, 47.417203)"><g><path d="M 10.75 -26.0625 L 10.75 -19.515625 L 21.3125 -19.515625 L 21.3125 -13.421875 L 10.75 -13.421875 L 10.75 -6.328125 L 22.703125 -6.328125 L 22.703125 0 L 2.859375 0 L 2.859375 -32.390625 L 22.703125 -32.390625 L 22.703125 -26.0625 Z M 10.75 -26.0625 "/></g></g></g><g fill="#00a5e9" fill-opacity="1"><g transform="translate(897.116087, 47.417203)"><g><path d="M 19.375 0 L 12.640625 -12.234375 L 10.75 -12.234375 L 10.75 0 L 2.859375 0 L 2.859375 -32.390625 L 16.109375 -32.390625 C 18.660156 -32.390625 20.832031 -31.941406 22.625 -31.046875 C 24.425781 -30.160156 25.769531 -28.9375 26.65625 -27.375 C 27.550781 -25.820312 28 -24.09375 28 -22.1875 C 28 -20.039062 27.390625 -18.117188 26.171875 -16.421875 C 24.960938 -14.734375 23.175781 -13.535156 20.8125 -12.828125 L 28.28125 0 Z M 10.75 -17.8125 L 15.640625 -17.8125 C 17.085938 -17.8125 18.171875 -18.164062 18.890625 -18.875 C 19.617188 -19.582031 19.984375 -20.582031 19.984375 -21.875 C 19.984375 -23.101562 19.617188 -24.070312 18.890625 -24.78125 C 18.171875 -25.488281 17.085938 -25.84375 15.640625 -25.84375 L 10.75 -25.84375 Z M 10.75 -17.8125 "/></g></g></g><g fill="#00a5e9" fill-opacity="1"><g transform="translate(933.839242, 47.417203)"><g><path d="M 26.15625 -32.390625 L 26.15625 -26.0625 L 17.578125 -26.0625 L 17.578125 0 L 9.6875 0 L 9.6875 -26.0625 L 1.109375 -26.0625 L 1.109375 -32.390625 Z M 26.15625 -32.390625 "/></g></g></g><g fill="#00a5e9" fill-opacity="1"><g transform="translate(967.748243, 47.417203)"><g><path d="M 23.03125 -5.71875 L 10.9375 -5.71875 L 9 0 L 0.734375 0 L 12.453125 -32.390625 L 21.59375 -32.390625 L 33.3125 0 L 24.96875 0 Z M 21 -11.8125 L 16.984375 -23.671875 L 13.015625 -11.8125 Z M 21 -11.8125 "/></g></g></g><g fill="#00a5e9" fill-opacity="1"><g transform="translate(1008.3928, 47.417203)"><g><path d="M 6.546875 0.375 C 5.160156 0.375 4.03125 -0.03125 3.15625 -0.84375 C 2.28125 -1.664062 1.84375 -2.675781 1.84375 -3.875 C 1.84375 -5.101562 2.28125 -6.132812 3.15625 -6.96875 C 4.03125 -7.800781 5.160156 -8.21875 6.546875 -8.21875 C 7.898438 -8.21875 9.015625 -7.800781 9.890625 -6.96875 C 10.773438 -6.132812 11.21875 -5.101562 11.21875 -3.875 C 11.21875 -2.675781 10.773438 -1.664062 9.890625 -0.84375 C 9.015625 -0.03125 7.898438 0.375 6.546875 0.375 Z M 6.546875 0.375 "/></g></g></g></g></g></svg>